<svg preserveAspectRatio="none" width="100%" height="100%" overflow="visible" style="display: block;" viewBox="0 0 28 34" fill="none" xmlns="http://www.w3.org/2000/svg">
<path id="Vector" d="M14 2.125C15.3261 2.125 16.5979 2.68471 17.5355 3.681C18.4732 4.67728 19 6.02854 19 7.4375V8.5H9V7.4375C9 6.02854 9.52678 4.67728 10.4645 3.681C11.4021 2.68471 12.6739 2.125 14 2.125V2.125ZM21 8.5V7.4375C21 5.46495 20.2625 3.5732 18.9497 2.17839C17.637 0.783591 15.8565 0 14 0C12.1435 0 10.363 0.783591 9.05025 2.17839C7.7375 3.5732 7 5.46495 7 7.4375V8.5H0V29.75C0 30.8772 0.421427 31.9582 1.17157 32.7552C1.92172 33.5522 2.93913 34 4 34H24C25.0609 34 26.0783 33.5522 26.8284 32.7552C27.5786 31.9582 28 30.8772 28 29.75V8.5H21ZM2 10.625H26V29.75C26 30.3136 25.7893 30.8541 25.4142 31.2526C25.0391 31.6511 24.5304 31.875 24 31.875H4C3.46957 31.875 2.96086 31.6511 2.58579 31.2526C2.21071 30.8541 2 30.3136 2 29.75V10.625Z" fill="var(--fill-0, #5C7995)"/>
</svg>
