<svg preserveAspectRatio="none" width="100%" height="100%" overflow="visible" style="display: block;" viewBox="0 0 27 25" fill="none" xmlns="http://www.w3.org/2000/svg">
<path id="Cart Icon" d="M0 0.892857C0 0.656057 0.094822 0.428955 0.263606 0.261512C0.432391 0.0940688 0.661311 0 0.900008 0H3.60003C3.80079 5.50205e-05 3.99577 0.0666977 4.15395 0.18933C4.31214 0.311962 4.42446 0.483543 4.47304 0.676786L5.20205 3.57143H26.1002C26.2369 3.57147 26.3719 3.6024 26.4947 3.66188C26.6176 3.72136 26.7252 3.80783 26.8093 3.91471C26.8935 4.0216 26.9519 4.1461 26.9804 4.27876C27.0088 4.41143 27.0063 4.54877 26.9732 4.68036L24.2732 15.3946C24.2246 15.5879 24.1123 15.7595 23.9541 15.8821C23.7959 16.0047 23.601 16.0714 23.4002 16.0714H7.20007C6.99931 16.0714 6.80433 16.0047 6.64615 15.8821C6.48796 15.7595 6.37564 15.5879 6.32706 15.3946L2.89803 1.78571H0.900008C0.661311 1.78571 0.432391 1.69165 0.263606 1.5242C0.094822 1.35676 0 1.12966 0 0.892857ZM5.65205 5.35714L7.90207 14.2857H22.6982L24.9482 5.35714H5.65205ZM9.00008 19.6429C8.52269 19.6429 8.06485 19.831 7.72728 20.1659C7.38971 20.5008 7.20007 20.955 7.20007 21.4286C7.20007 21.9022 7.38971 22.3564 7.72728 22.6913C8.06485 23.0261 8.52269 23.2143 9.00008 23.2143C9.47748 23.2143 9.93532 23.0261 10.2729 22.6913C10.6105 22.3564 10.8001 21.9022 10.8001 21.4286C10.8001 20.955 10.6105 20.5008 10.2729 20.1659C9.93532 19.831 9.47748 19.6429 9.00008 19.6429ZM5.40005 21.4286C5.40005 20.4814 5.77934 19.573 6.45447 18.9032C7.12961 18.2334 8.04529 17.8571 9.00008 17.8571C9.95487 17.8571 10.8706 18.2334 11.5457 18.9032C12.2208 19.573 12.6001 20.4814 12.6001 21.4286C12.6001 22.3758 12.2208 23.2842 11.5457 23.954C10.8706 24.6237 9.95487 25 9.00008 25C8.04529 25 7.12961 24.6237 6.45447 23.954C5.77934 23.2842 5.40005 22.3758 5.40005 21.4286ZM21.6002 19.6429C21.1228 19.6429 20.665 19.831 20.3274 20.1659C19.9898 20.5008 19.8002 20.955 19.8002 21.4286C19.8002 21.9022 19.9898 22.3564 20.3274 22.6913C20.665 23.0261 21.1228 23.2143 21.6002 23.2143C22.0776 23.2143 22.5354 23.0261 22.873 22.6913C23.2106 22.3564 23.4002 21.9022 23.4002 21.4286C23.4002 20.955 23.2106 20.5008 22.873 20.1659C22.5354 19.831 22.0776 19.6429 21.6002 19.6429ZM18.0002 21.4286C18.0002 20.4814 18.3795 19.573 19.0546 18.9032C19.7297 18.2334 20.6454 17.8571 21.6002 17.8571C22.555 17.8571 23.4707 18.2334 24.1458 18.9032C24.8209 19.573 25.2002 20.4814 25.2002 21.4286C25.2002 22.3758 24.8209 23.2842 24.1458 23.954C23.4707 24.6237 22.555 25 21.6002 25C20.6454 25 19.7297 24.6237 19.0546 23.954C18.3795 23.2842 18.0002 22.3758 18.0002 21.4286Z" fill="var(--fill-0, white)"/>
</svg>
